<svg width="17" height="21" viewBox="0 0 17 21" fill="none" xmlns="http://www.w3.org/2000/svg">
<path fill-rule="evenodd" clip-rule="evenodd" d="M3 1.5C2.17157 1.5 1.5 2.17157 1.5 3V18C1.5 18.8284 2.17157 19.5 3 19.5H13.5C14.3284 19.5 15 18.8284 15 18V3C15 2.17157 14.3284 1.5 13.5 1.5H3ZM0 3C0 1.34315 1.34315 0 3 0H13.5C15.1569 0 16.5 1.34315 16.5 3V18C16.5 19.6569 15.1569 21 13.5 21H3C1.34315 21 0 19.6569 0 18V3Z" fill="#B89148"/>
<path fill-rule="evenodd" clip-rule="evenodd" d="M3.75 4.5C3.75 4.08579 4.08579 3.75 4.5 3.75H12C12.4142 3.75 12.75 4.08579 12.75 4.5C12.75 4.91421 12.4142 5.25 12 5.25H4.5C4.08579 5.25 3.75 4.91421 3.75 4.5Z" fill="#B89148"/>
<path fill-rule="evenodd" clip-rule="evenodd" d="M3.75 8.25C3.75 7.83579 4.08579 7.5 4.5 7.5H12C12.4142 7.5 12.75 7.83579 12.75 8.25C12.75 8.66421 12.4142 9 12 9H4.5C4.08579 9 3.75 8.66421 3.75 8.25Z" fill="#B89148"/>
<path fill-rule="evenodd" clip-rule="evenodd" d="M3.75 12C3.75 11.5858 4.08579 11.25 4.5 11.25H8.25C8.66421 11.25 9 11.5858 9 12C9 12.4142 8.66421 12.75 8.25 12.75H4.5C4.08579 12.75 3.75 12.4142 3.75 12Z" fill="#B89148"/>
</svg>
