<svg width="56" height="56" viewBox="0 0 56 56" fill="none" xmlns="http://www.w3.org/2000/svg">
<g clip-path="url(#clip0_155_7)">
<rect width="56" height="56" fill="#B89148" fill-opacity="0.18"/>
<path opacity="0.1" d="M52 0H4C1.79086 0 0 1.79086 0 4V52C0 54.2091 1.79086 56 4 56H52C54.2091 56 56 54.2091 56 52V4C56 1.79086 54.2091 0 52 0Z" fill="#B89148"/>
<path d="M23.6291 19.5697C23.8084 19.4718 23.9991 19.6224 23.9991 19.8267V33.3825C23.9991 33.6058 23.8466 33.7946 23.6493 33.8988C23.6425 33.9024 23.6358 33.906 23.6291 33.9097L21.2791 35.2497C19.6391 36.1897 18.2891 35.4097 18.2891 33.5097V23.7797C18.2891 23.1497 18.7391 22.3697 19.2991 22.0497L23.6291 19.5697Z" fill="#B89148"/>
<path d="M30.7219 22.1031C30.8922 22.1875 31 22.3611 31 22.5512V35.7043C31 36.0728 30.615 36.3147 30.283 36.1548L26.033 34.1072C25.86 34.0238 25.75 33.8487 25.75 33.6567V20.4464C25.75 20.0755 26.1396 19.8338 26.4719 19.9983L30.7219 22.1031Z" fill="#B89148"/>
<path d="M38 22.4901V32.2201C38 32.8501 37.55 33.6301 36.99 33.9501L33.4986 35.951C33.1653 36.1421 32.75 35.9014 32.75 35.5172V22.3304C32.75 22.1509 32.8462 21.9851 33.0021 21.8961L35.01 20.7501C36.65 19.8101 38 20.5901 38 22.4901Z" fill="#B89148"/>
</g>
<defs>
<clipPath id="clip0_155_7">
<rect width="56" height="56" fill="white"/>
</clipPath>
</defs>
</svg>
